<svg id="Projects" xmlns="http://www.w3.org/2000/svg" viewBox="0 0 200 200"><defs><style>.cls-1{fill:none;stroke:#aa912e;stroke-miterlimit:10;}</style></defs><title>Android</title><g id="icons-2" data-name="icons"><g id="Layer_8" data-name="Layer 8"><rect id="_Rectangle_" data-name="&lt;Rectangle&gt;" class="cls-1" x="53.97" y="70.75" width="15.09" height="53.67" rx="5.76" ry="5.76"/><rect id="_Rectangle_2" data-name="&lt;Rectangle&gt;" class="cls-1" x="138.09" y="70.75" width="15.09" height="53.67" rx="5.76" ry="5.76"/><path id="_Path_" data-name="&lt;Path&gt;" class="cls-1" d="M133.5,86.46v34c0,7.23-6,13.35-12,15.16v22.8a6.5,6.5,0,1,1-13,0v-22h-8v22a6.5,6.5,0,1,1-13,0V136a15.94,15.94,0,0,1-13-15.52v-46h58Z"/><path id="_Path_2" data-name="&lt;Path&gt;" class="cls-1" d="M97.64,57.23a3.05,3.05,0,1,1-3-3.06A3,3,0,0,1,97.64,57.23Z"/><path id="_Path_3" data-name="&lt;Path&gt;" class="cls-1" d="M116,57.23a3.05,3.05,0,1,1-3-3.06A3,3,0,0,1,116,57.23Z"/><path id="_Compound_Path_" data-name="&lt;Compound Path&gt;" class="cls-1" d="M77.26,68.95L130.36,69a23,23,0,0,0-11.1-20l5.38-13.44a1.1,1.1,0,0,0-.62-1.43,1.05,1.05,0,0,0-.39-0.08,1.1,1.1,0,0,0-1,.69L117.34,48a30.78,30.78,0,0,0-27.17,0L84.89,34.79a1.08,1.08,0,0,0-1-.69,1.12,1.12,0,0,0-.41.08,1.09,1.09,0,0,0-.6,1.43L88.25,49A22.91,22.91,0,0,0,77.26,68.95Zm35.66-14.78a3.06,3.06,0,1,1-3,3.06A3.06,3.06,0,0,1,112.91,54.17Zm-18.33,0a3.06,3.06,0,1,1-3,3.06A3.06,3.06,0,0,1,94.59,54.17Z"/></g></g></svg>