<svg id="About_Me_Page" data-name="About Me Page" xmlns="http://www.w3.org/2000/svg" viewBox="0 0 200 200"><defs><style>.cls-1{fill:none;stroke:#aa912e;stroke-miterlimit:10;}</style></defs><title>Controller</title><g id="_Group_" data-name="&lt;Group&gt;"><path id="_Path_" data-name="&lt;Path&gt;" class="cls-1" d="M102.55,53.88h-15l-3.4-1.17A43.53,43.53,0,0,1,63.35,37.5h-16l-20.6,9.65v9.36L11.6,119a47.51,47.51,0,0,0,5.06,35h0a17.68,17.68,0,0,0,20.11,8.15h0a30,30,0,0,0,20.48-20h0c4-12.86,8.92-16.2,20.81-22.5l24.45,0.59,11.74,0.59"/><path id="_Path_2" data-name="&lt;Path&gt;" class="cls-1" d="M102.55,53.88h14.9l3.4-1.17A43.53,43.53,0,0,0,141.68,37.5h16l20.68,9.65v9.36l15,62a48.9,48.9,0,0,1-5.22,36h0a17,17,0,0,1-19.31,7.82h0a31,31,0,0,1-21.19-20.69h0c-3.86-12.51-.95-14.49-12.52-20.62l-8.28-.53-14.94.42"/><ellipse id="_Path_3" data-name="&lt;Path&gt;" class="cls-1" cx="103.94" cy="73.5" rx="7.24" ry="7.04"/><ellipse id="_Path_4" data-name="&lt;Path&gt;" class="cls-1" cx="129.24" cy="103.42" rx="9.72" ry="9.46"/><ellipse id="_Path_5" data-name="&lt;Path&gt;" class="cls-1" cx="52.27" cy="69.7" rx="11.15" ry="10.85"/><ellipse id="_Path_6" data-name="&lt;Path&gt;" class="cls-1" cx="160.07" cy="81.72" rx="4.86" ry="4.73"/><ellipse id="_Path_7" data-name="&lt;Path&gt;" class="cls-1" cx="159.49" cy="63" rx="4.86" ry="4.73"/><ellipse id="_Path_8" data-name="&lt;Path&gt;" class="cls-1" cx="150.12" cy="72.36" rx="4.86" ry="4.73"/><ellipse id="_Path_9" data-name="&lt;Path&gt;" class="cls-1" cx="168.26" cy="72.36" rx="4.86" ry="4.73"/><ellipse id="_Path_10" data-name="&lt;Path&gt;" class="cls-1" cx="76.53" cy="103.32" rx="11.43" ry="11.12"/><path id="_Path_11" data-name="&lt;Path&gt;" class="cls-1" d="M74.76,92.21v3.22a5.27,5.27,0,0,1-5.27,5.27h-3.8"/><path id="_Path_12" data-name="&lt;Path&gt;" class="cls-1" d="M78.27,92.21v3.22a5.27,5.27,0,0,0,5.27,5.27h3.8"/><path id="_Path_13" data-name="&lt;Path&gt;" class="cls-1" d="M78.51,114.68l0-3.22a5.27,5.27,0,0,1,5.33-5.2l3.8,0"/><path id="_Path_14" data-name="&lt;Path&gt;" class="cls-1" d="M74.81,114.68l0-3.22a5.27,5.27,0,0,0-5.33-5.2l-3.8,0"/></g></svg>