<svg id="About_Me_Page" data-name="About Me Page" xmlns="http://www.w3.org/2000/svg" viewBox="0 0 200 200"><defs><style>.cls-1{fill:none;stroke:#aa912e;}</style></defs><title>Diploma</title><g id="_Group_" data-name="&lt;Group&gt;"><path id="_Path_" data-name="&lt;Path&gt;" class="cls-1" d="M43.2,132.06c1.54,9.4-2.11,15.33-6.95,14.54-4-.65-8.17-5.87-10.06-12.29-2.09-7.1-1.2-15,2.92-17.34C34.34,114,41.41,121.15,43.2,132.06Z"/><path id="_Path_2" data-name="&lt;Path&gt;" class="cls-1" d="M39.36,146.67l57.13-28.48q4.83-2.28,9.73-4.38"/><path id="_Path_3" data-name="&lt;Path&gt;" class="cls-1" d="M117.7,109.12l1.09-.42,4.84-1.85L171.25,88.7a29.8,29.8,0,0,0-14.19-25.38l-2.25-1.38L113.44,84q-5.19,2.77-10.54,5.25"/><path id="_Path_4" data-name="&lt;Path&gt;" class="cls-1" d="M92.93,93.58Q89.52,95,86.07,96.22L30.72,116.37l-1.61.59"/><path id="_Path_5" data-name="&lt;Path&gt;" class="cls-1" d="M118.78,118.45l0,18.27-5.35-8.16-7.74,8.16,1.27-12.62a30.6,30.6,0,0,0-.71-10.29,31.78,31.78,0,0,0-4.42-10.25L97.56,98.5h0l-4.76-5.11,0.14,0.06h0.13c3.31-1.34,6.59-2.73,9.83-4.24a4.87,4.87,0,0,1,5.2,1.92l6.29,8.87a40.25,40.25,0,0,1,3.31,9.11c0.06,0.26.12,0.52,0.17,0.78l-0.17.06,1,6.5C118.76,117.12,118.78,117.79,118.78,118.45Z"/><path id="_Path_6" data-name="&lt;Path&gt;" class="cls-1" d="M102.13,89.51a4.09,4.09,0,0,1,.77-0.26Q98,91.52,93.07,93.53Z"/><path id="_Path_7" data-name="&lt;Path&gt;" class="cls-1" d="M118.73,116.46l-1-6.49,0.17-.06A39.38,39.38,0,0,1,118.73,116.46Z"/><polygon id="_Path_8" data-name="&lt;Path&gt;" class="cls-1" points="140.91 120.24 146.3 126.77 119.33 120.24 118.73 116.46 117.7 109.96 117.87 109.9 124.21 107.47 149.9 115.69 140.91 120.24"/><path id="_Path_9" data-name="&lt;Path&gt;" class="cls-1" d="M123.64,106.85l-3.9-6.8a19,19,0,0,0-11.64-8.91h0"/><path id="_Path_10" data-name="&lt;Path&gt;" class="cls-1" d="M84,97.5h4.45a23,23,0,0,1,9,1.83"/></g></svg>