<svg id="TitlePage" xmlns="http://www.w3.org/2000/svg" viewBox="0 0 200 200"><defs><style>.cls-1,.cls-2{fill:none;stroke:#aa912e;}.cls-2{stroke-width:0.5px;}</style></defs><title>Laptop</title><g id="Icons"><g id="_Group_" data-name="&lt;Group&gt;"><rect id="_Rectangle_" data-name="&lt;Rectangle&gt;" class="cls-1" x="66.56" y="50.86" width="84.23" height="61.26"/><polyline id="_Path_" data-name="&lt;Path&gt;" class="cls-1" points="67.04 112.15 28.75 149.5 123.03 149.5 150.79 111.44"/><rect id="_Rectangle_2" data-name="&lt;Rectangle&gt;" class="cls-1" x="74.53" y="60.12" width="68.28" height="42.75"/><path id="_Path_2" data-name="&lt;Path&gt;" class="cls-2" d="M78.7,147.28l-20.38.18c-2.83,0-3-1.92-.45-4.23l0.73-.66c2.38-2.16,6.26-3.78,8.72-3.72l17.94,0.42c2.11,0,2.62,1.6,1.12,3.55l-0.46.6A10.68,10.68,0,0,1,78.7,147.28Z"/><path id="_Path_3" data-name="&lt;Path&gt;" class="cls-2" d="M72.27,118.25l-3.46-.14c-0.57,0-.69-0.45-0.29-0.94l1.29-1.57a2.27,2.27,0,0,1,1.58-.76l3.18,0.05c0.55,0,.77.37,0.48,0.82L74,117.35A2.18,2.18,0,0,1,72.27,118.25Z"/><path id="_Path_4" data-name="&lt;Path&gt;" class="cls-2" d="M81.43,118.25L78,118.11c-0.57,0-.69-0.45-0.29-0.94L79,115.6a2.27,2.27,0,0,1,1.58-.76l3.18,0.05c0.55,0,.77.37,0.48,0.82l-1.07,1.64A2.18,2.18,0,0,1,81.43,118.25Z"/><path id="_Path_5" data-name="&lt;Path&gt;" class="cls-2" d="M90.58,118.25l-3.46-.14c-0.57,0-.69-0.45-0.29-0.94l1.29-1.57a2.27,2.27,0,0,1,1.58-.76l3.18,0.05c0.55,0,.77.37,0.48,0.82l-1.07,1.64A2.18,2.18,0,0,1,90.58,118.25Z"/><path id="_Path_6" data-name="&lt;Path&gt;" class="cls-2" d="M99.74,118.25l-3.46-.14c-0.57,0-.69-0.45-0.29-0.94l1.29-1.57a2.27,2.27,0,0,1,1.58-.76l3.18,0.05c0.55,0,.77.37,0.48,0.82l-1.07,1.64A2.18,2.18,0,0,1,99.74,118.25Z"/><path id="_Path_7" data-name="&lt;Path&gt;" class="cls-2" d="M108.9,118.25l-3.46-.14c-0.57,0-.69-0.45-0.29-0.94l1.29-1.57a2.27,2.27,0,0,1,1.58-.76l3.18,0.05c0.55,0,.77.37,0.48,0.82l-1.07,1.64A2.18,2.18,0,0,1,108.9,118.25Z"/><path id="_Path_8" data-name="&lt;Path&gt;" class="cls-2" d="M118.06,118.25l-3.46-.14c-0.57,0-.69-0.45-0.29-0.94l1.29-1.57a2.27,2.27,0,0,1,1.58-.76l3.18,0.05c0.55,0,.77.37,0.48,0.82l-1.07,1.64A2.18,2.18,0,0,1,118.06,118.25Z"/><path id="_Path_9" data-name="&lt;Path&gt;" class="cls-2" d="M127.21,118.25l-3.46-.14c-0.57,0-.69-0.45-0.29-0.94l1.29-1.57a2.27,2.27,0,0,1,1.58-.76l3.18,0.05c0.55,0,.77.37,0.48,0.82l-1.07,1.64A2.18,2.18,0,0,1,127.21,118.25Z"/><path id="_Path_10" data-name="&lt;Path&gt;" class="cls-2" d="M68.12,123.72l-3.46-.14c-0.57,0-.69-0.45-0.29-0.94l1.29-1.57a2.27,2.27,0,0,1,1.58-.76l3.18,0.05c0.55,0,.77.37,0.48,0.82l-1.07,1.64A2.18,2.18,0,0,1,68.12,123.72Z"/><path id="_Path_11" data-name="&lt;Path&gt;" class="cls-2" d="M77.28,123.72l-3.46-.14c-0.57,0-.69-0.45-0.29-0.94l1.29-1.57a2.27,2.27,0,0,1,1.58-.76l3.18,0.05c0.55,0,.77.37,0.48,0.82L79,122.82A2.18,2.18,0,0,1,77.28,123.72Z"/><path id="_Path_12" data-name="&lt;Path&gt;" class="cls-2" d="M86.44,123.72L83,123.57c-0.57,0-.69-0.45-0.29-0.94L84,121.07a2.27,2.27,0,0,1,1.58-.76l3.18,0.05c0.55,0,.77.37,0.48,0.82l-1.07,1.64A2.18,2.18,0,0,1,86.44,123.72Z"/><path id="_Path_13" data-name="&lt;Path&gt;" class="cls-2" d="M95.59,123.72l-3.46-.14c-0.57,0-.69-0.45-0.29-0.94l1.29-1.57a2.27,2.27,0,0,1,1.58-.76l3.18,0.05c0.55,0,.77.37,0.48,0.82l-1.07,1.64A2.18,2.18,0,0,1,95.59,123.72Z"/><path id="_Path_14" data-name="&lt;Path&gt;" class="cls-2" d="M104.75,123.72l-3.46-.14c-0.57,0-.69-0.45-0.29-0.94l1.29-1.57a2.27,2.27,0,0,1,1.58-.76l3.18,0.05c0.55,0,.77.37,0.48,0.82l-1.07,1.64A2.18,2.18,0,0,1,104.75,123.72Z"/><path id="_Path_15" data-name="&lt;Path&gt;" class="cls-2" d="M113.91,123.72l-3.46-.14c-0.57,0-.69-0.45-0.29-0.94l1.29-1.57a2.27,2.27,0,0,1,1.58-.76l3.18,0.05c0.55,0,.77.37,0.48,0.82l-1.07,1.64A2.18,2.18,0,0,1,113.91,123.72Z"/><path id="_Path_16" data-name="&lt;Path&gt;" class="cls-2" d="M123.07,123.72l-3.46-.14c-0.57,0-.69-0.45-0.29-0.94l1.29-1.57a2.27,2.27,0,0,1,1.58-.76l3.18,0.05c0.55,0,.77.37,0.48,0.82l-1.07,1.64A2.18,2.18,0,0,1,123.07,123.72Z"/><path id="_Path_17" data-name="&lt;Path&gt;" class="cls-2" d="M63.4,129.23l-3.46-.14c-0.57,0-.69-0.45-0.29-0.94l1.29-1.57a2.27,2.27,0,0,1,1.58-.76l3.18,0.05c0.55,0,.77.37,0.48,0.82l-1.07,1.64A2.18,2.18,0,0,1,63.4,129.23Z"/><path id="_Path_18" data-name="&lt;Path&gt;" class="cls-2" d="M72.55,129.23l-3.46-.14c-0.57,0-.69-0.45-0.29-0.94l1.29-1.57a2.27,2.27,0,0,1,1.58-.76l3.18,0.05c0.55,0,.77.37,0.48,0.82l-1.07,1.64A2.18,2.18,0,0,1,72.55,129.23Z"/><path id="_Path_19" data-name="&lt;Path&gt;" class="cls-2" d="M81.71,129.23l-3.46-.14c-0.57,0-.69-0.45-0.29-0.94l1.29-1.57a2.27,2.27,0,0,1,1.58-.76L84,125.88c0.55,0,.77.37,0.48,0.82l-1.07,1.64A2.18,2.18,0,0,1,81.71,129.23Z"/><path id="_Path_20" data-name="&lt;Path&gt;" class="cls-2" d="M90.87,129.23l-3.46-.14c-0.57,0-.69-0.45-0.29-0.94l1.29-1.57a2.27,2.27,0,0,1,1.58-.76l3.18,0.05c0.55,0,.77.37,0.48,0.82l-1.07,1.64A2.18,2.18,0,0,1,90.87,129.23Z"/><path id="_Path_21" data-name="&lt;Path&gt;" class="cls-2" d="M100,129.23l-3.46-.14c-0.57,0-.69-0.45-0.29-0.94l1.29-1.57a2.27,2.27,0,0,1,1.58-.76l3.18,0.05c0.55,0,.77.37,0.48,0.82l-1.07,1.64A2.18,2.18,0,0,1,100,129.23Z"/><path id="_Path_22" data-name="&lt;Path&gt;" class="cls-2" d="M109.18,129.23l-3.46-.14c-0.57,0-.69-0.45-0.29-0.94l1.29-1.57a2.27,2.27,0,0,1,1.58-.76l3.18,0.05c0.55,0,.77.37,0.48,0.82l-1.07,1.64A2.18,2.18,0,0,1,109.18,129.23Z"/><path id="_Path_23" data-name="&lt;Path&gt;" class="cls-2" d="M118.34,129.23l-3.46-.14c-0.57,0-.69-0.45-0.29-0.94l1.29-1.57a2.27,2.27,0,0,1,1.58-.76l3.18,0.05c0.55,0,.77.37,0.48,0.82l-1.07,1.64A2.18,2.18,0,0,1,118.34,129.23Z"/><path id="_Path_24" data-name="&lt;Path&gt;" class="cls-2" d="M59,134.67l-3.46-.14c-0.57,0-.69-0.45-0.29-0.94L56.5,132a2.27,2.27,0,0,1,1.58-.76l3.18,0.05c0.55,0,.77.37,0.48,0.82l-1.07,1.64A2.18,2.18,0,0,1,59,134.67Z"/><path id="_Path_25" data-name="&lt;Path&gt;" class="cls-2" d="M68.12,134.67l-3.46-.14c-0.57,0-.69-0.45-0.29-0.94L65.66,132a2.27,2.27,0,0,1,1.58-.76l3.18,0.05c0.55,0,.77.37,0.48,0.82l-1.07,1.64A2.18,2.18,0,0,1,68.12,134.67Z"/><path id="_Path_26" data-name="&lt;Path&gt;" class="cls-2" d="M77.28,134.67l-3.46-.14c-0.57,0-.69-0.45-0.29-0.94L74.82,132a2.27,2.27,0,0,1,1.58-.76l3.18,0.05c0.55,0,.77.37,0.48,0.82L79,133.78A2.18,2.18,0,0,1,77.28,134.67Z"/><path id="_Path_27" data-name="&lt;Path&gt;" class="cls-2" d="M86.44,134.67L83,134.53c-0.57,0-.69-0.45-0.29-0.94L84,132a2.27,2.27,0,0,1,1.58-.76l3.18,0.05c0.55,0,.77.37,0.48,0.82l-1.07,1.64A2.18,2.18,0,0,1,86.44,134.67Z"/><path id="_Path_28" data-name="&lt;Path&gt;" class="cls-2" d="M95.59,134.67l-3.46-.14c-0.57,0-.69-0.45-0.29-0.94L93.13,132a2.27,2.27,0,0,1,1.58-.76l3.18,0.05c0.55,0,.77.37,0.48,0.82l-1.07,1.64A2.18,2.18,0,0,1,95.59,134.67Z"/><path id="_Path_29" data-name="&lt;Path&gt;" class="cls-2" d="M104.75,134.67l-3.46-.14c-0.57,0-.69-0.45-0.29-0.94l1.29-1.57a2.27,2.27,0,0,1,1.58-.76l3.18,0.05c0.55,0,.77.37,0.48,0.82l-1.07,1.64A2.18,2.18,0,0,1,104.75,134.67Z"/><path id="_Path_30" data-name="&lt;Path&gt;" class="cls-2" d="M113.91,134.67l-3.46-.14c-0.57,0-.69-0.45-0.29-0.94l1.29-1.57a2.27,2.27,0,0,1,1.58-.76l3.18,0.05c0.55,0,.77.37,0.48,0.82l-1.07,1.64A2.18,2.18,0,0,1,113.91,134.67Z"/><path id="_Path_31" data-name="&lt;Path&gt;" class="cls-2" d="M136.37,118.25l-3.46-.14c-0.57,0-.69-0.45-0.29-0.94l1.29-1.57a2.27,2.27,0,0,1,1.58-.76l3.18,0.05c0.55,0,.77.37,0.48,0.82l-1.07,1.64A2.18,2.18,0,0,1,136.37,118.25Z"/><path id="_Path_32" data-name="&lt;Path&gt;" class="cls-2" d="M132.22,123.72l-3.46-.14c-0.57,0-.69-0.45-0.29-0.94l1.29-1.57a2.27,2.27,0,0,1,1.58-.76l3.18,0.05c0.55,0,.77.37,0.48,0.82l-1.07,1.64A2.18,2.18,0,0,1,132.22,123.72Z"/><path id="_Path_33" data-name="&lt;Path&gt;" class="cls-2" d="M127.5,129.23l-3.46-.14c-0.57,0-.69-0.45-0.29-0.94l1.29-1.57a2.27,2.27,0,0,1,1.58-.76l3.18,0.05c0.55,0,.77.37,0.48,0.82l-1.07,1.64A2.18,2.18,0,0,1,127.5,129.23Z"/><path id="_Path_34" data-name="&lt;Path&gt;" class="cls-2" d="M123.07,134.67l-3.46-.14c-0.57,0-.69-0.45-0.29-0.94l1.29-1.57a2.27,2.27,0,0,1,1.58-.76l3.18,0.05c0.55,0,.77.37,0.48,0.82l-1.07,1.64A2.18,2.18,0,0,1,123.07,134.67Z"/></g></g></svg>